<?xml version="1.0" encoding="UTF-8"?>
<svg id="Layer_1" data-name="Layer 1" xmlns="http://www.w3.org/2000/svg" version="1.1" viewBox="0 0 1920 1080">
  <defs>
    <style>
      .cls-1 {
        fill: #000;
      }

      .cls-1, .cls-2 {
        stroke-width: 0px;
      }

      .cls-3 {
        font-family: Besides, Besides;
        font-size: 50.78px;
      }

      .cls-3, .cls-2 {
        fill: #386641;
      }
    </style>
  </defs>
  <text class="cls-3" transform="translate(901.18 524.17)"><tspan x="0" y="0">Leader</tspan><tspan x="0" y="60.94">Chair</tspan></text>
  <g>
    <path class="cls-1" d="M850.16,531.88c1.26,0,2.28-.02,3.31,0,1.65.03,3.25-.3,3.31-2.25.07-2.2-1.68-2.46-3.4-2.44-8.3.13-16.42,1.41-24.33,3.92-4.12,1.31-8.17,2.87-12.32,4.34-1.4-15.84-.84-32.12-13.21-45.1,1.05,0,1.85,0,2.66,0,20,0,40,0,60,.01,8.59,0,13.16,4.59,13.16,13.16,0,26.07,0,52.15,0,78.22,0,1.12,0,2.24,0,3.58-1.18.07-2.1.16-3.01.16-9.19,0-18.39,0-27.58,0-7.71-.01-12.4-4.69-12.42-12.39-.02-5.69,0-11.38.02-17.07,0-.28.07-.56.15-1.19.86-.04,1.76-.11,2.67-.12,6.16-.01,12.32,0,18.48-.02,1.04,0,2.19.15,3.09-.23,1.03-.44,2.31-1.24,2.61-2.16.23-.73-.62-2.26-1.42-2.76-1.73-1.09-3.7-1.86-5.65-2.53-1.96-.68-4.01-1.09-6.13-1.65v-13.49Z"/>
    <path class="cls-2" d="M784.51,490.75c6.16.07,10.4,2.76,13.64,7.21,4.83,6.63,6.89,14.36,7.76,22.29,1.03,9.39,1.39,18.86,1.87,28.31.26,5.05,1.37,6.32,6.52,6.35,5.47.03,10.95,0,16.6,0,0,7.42.41,14.51-.14,21.53-.39,4.97-5.34,8.69-10.44,8.76-8.33.11-16.67.14-25,.01-6.39-.1-10.79-4.99-10.8-11.81-.03-25.86-.01-51.73-.01-77.59,0-1.59,0-3.18,0-5.06Z"/>
    <path class="cls-1" d="M845.98,532.2v11.71c-10.04.87-19.92,1.73-29.9,2.6.1-1.44.19-3.4.41-5.35.05-.47.48-1,.89-1.3,4.57-3.4,22.15-8.12,28.6-7.65Z"/>
  </g>
</svg>